<svg width="756" height="430" viewBox="0 0 756 430" fill="none" xmlns="http://www.w3.org/2000/svg">
<g clip-path="url(#clip0)">
<path d="M383.76 162.16H378.768V165.48H383.76V162.16Z" fill="#B0BEC5"/>
<path d="M390.416 162.16H385.423V165.48H390.416V162.16Z" fill="#B0BEC5"/>
<path d="M397.076 162.16H392.083V165.48H397.076V162.16Z" fill="#B0BEC5"/>
<path d="M403.731 162.16H398.739V165.48H403.731V162.16Z" fill="#B0BEC5"/>
<path d="M410.392 162.16H405.399V165.48H410.392V162.16Z" fill="#B0BEC5"/>
<path d="M417.052 162.16H412.06V165.48H417.052V162.16Z" fill="#B0BEC5"/>
<path d="M423.707 162.16H418.714V165.48H423.707V162.16Z" fill="#B0BEC5"/>
<path d="M430.368 162.16H425.375V165.48H430.368V162.16Z" fill="#B0BEC5"/>
<path d="M437.022 162.16H432.03V165.48H437.022V162.16Z" fill="#B0BEC5"/>
<path d="M443.683 162.16H438.69V165.48H443.683V162.16Z" fill="#B0BEC5"/>
<path d="M553 164.465H338.183V403.533H553V164.465Z" fill="url(#paint0_linear)"/>
<path d="M549.453 324.08H341.734V398.329H549.453V324.08Z" fill="#ECEFF1"/>
<path d="M366.83 341.694H358.782V379.736H366.83V341.694Z" fill="#64FFDA"/>
<g opacity="0.7">
<path opacity="0.7" d="M382.721 341.694H374.672V379.736H382.721V341.694Z" fill="#64FFDA"/>
</g>
<g opacity="0.6">
<path opacity="0.6" d="M398.612 341.694H390.563V379.736H398.612V341.694Z" fill="#64FFDA"/>
</g>
<g opacity="0.5">
<path opacity="0.5" d="M414.504 341.694H406.455V379.736H414.504V341.694Z" fill="#64FFDA"/>
</g>
<g opacity="0.5">
<path opacity="0.5" d="M430.394 341.694H422.346V379.736H430.394V341.694Z" fill="#64FFDA"/>
</g>
<g opacity="0.4">
<path opacity="0.4" d="M446.285 341.694H438.237V379.736H446.285V341.694Z" fill="#64FFDA"/>
</g>
<g opacity="0.3">
<path opacity="0.3" d="M462.171 341.694H454.123V379.736H462.171V341.694Z" fill="#64FFDA"/>
</g>
<path d="M520.041 379.836C530.767 379.836 539.463 371.166 539.463 360.47C539.463 349.775 530.767 341.105 520.041 341.105C509.315 341.105 500.619 349.775 500.619 360.47C500.619 371.166 509.315 379.836 520.041 379.836Z" fill="#0C37D1"/>
<path d="M549.453 246.943H341.734V321.191H549.453V246.943Z" fill="#ECEFF1"/>
<path d="M366.83 264.557H358.782V302.599H366.83V264.557Z" fill="#64FFDA"/>
<g opacity="0.7">
<path opacity="0.7" d="M382.721 264.557H374.672V302.599H382.721V264.557Z" fill="#64FFDA"/>
</g>
<g opacity="0.6">
<path opacity="0.6" d="M398.612 264.557H390.563V302.599H398.612V264.557Z" fill="#64FFDA"/>
</g>
<g opacity="0.5">
<path opacity="0.5" d="M414.504 264.557H406.455V302.599H414.504V264.557Z" fill="#64FFDA"/>
</g>
<g opacity="0.5">
<path opacity="0.5" d="M430.394 264.557H422.346V302.599H430.394V264.557Z" fill="#64FFDA"/>
</g>
<g opacity="0.4">
<path opacity="0.4" d="M446.285 264.557H438.237V302.599H446.285V264.557Z" fill="#64FFDA"/>
</g>
<g opacity="0.3">
<path opacity="0.3" d="M462.171 264.557H454.123V302.599H462.171V264.557Z" fill="#64FFDA"/>
</g>
<path d="M520.041 302.704C530.767 302.704 539.463 294.034 539.463 283.338C539.463 272.643 530.767 263.973 520.041 263.973C509.315 263.973 500.619 272.643 500.619 283.338C500.619 294.034 509.315 302.704 520.041 302.704Z" fill="#0C37D1"/>
<path d="M549.453 169.811H341.734V244.059H549.453V169.811Z" fill="#ECEFF1"/>
<path d="M366.83 187.419H358.782V225.462H366.83V187.419Z" fill="#64FFDA"/>
<g opacity="0.7">
<path opacity="0.7" d="M382.721 187.419H374.672V225.462H382.721V187.419Z" fill="#64FFDA"/>
</g>
<g opacity="0.6">
<path opacity="0.6" d="M398.612 187.419H390.563V225.462H398.612V187.419Z" fill="#64FFDA"/>
</g>
<g opacity="0.5">
<path opacity="0.5" d="M414.504 187.419H406.455V225.462H414.504V187.419Z" fill="#64FFDA"/>
</g>
<g opacity="0.5">
<path opacity="0.5" d="M430.394 187.419H422.346V225.462H430.394V187.419Z" fill="#64FFDA"/>
</g>
<g opacity="0.4">
<path opacity="0.4" d="M446.285 187.419H438.237V225.462H446.285V187.419Z" fill="#64FFDA"/>
</g>
<g opacity="0.3">
<path opacity="0.3" d="M462.171 187.419H454.123V225.462H462.171V187.419Z" fill="#64FFDA"/>
</g>
<path d="M520.041 227.077C531.604 227.077 540.977 217.731 540.977 206.201C540.977 194.672 531.604 185.325 520.041 185.325C508.478 185.325 499.104 194.672 499.104 206.201C499.104 217.731 508.478 227.077 520.041 227.077Z" fill="url(#paint1_linear)"/>
<path d="M520.041 304.73C531.604 304.73 540.977 295.384 540.977 283.854C540.977 272.325 531.604 262.978 520.041 262.978C508.478 262.978 499.104 272.325 499.104 283.854C499.104 295.384 508.478 304.73 520.041 304.73Z" fill="url(#paint2_linear)"/>
<path d="M520.041 381.862C531.604 381.862 540.977 372.516 540.977 360.986C540.977 349.456 531.604 340.11 520.041 340.11C508.478 340.11 499.104 349.456 499.104 360.986C499.104 372.516 508.478 381.862 520.041 381.862Z" fill="url(#paint3_linear)"/>
<path d="M520.041 225.567C530.767 225.567 539.463 216.897 539.463 206.201C539.463 195.506 530.767 186.835 520.041 186.835C509.315 186.835 500.619 195.506 500.619 206.201C500.619 216.897 509.315 225.567 520.041 225.567Z" fill="#0C37D1"/>
<path d="M452.007 173.227H375.29C374.59 173.227 373.919 172.949 373.424 172.456C372.929 171.962 372.651 171.293 372.651 170.595V166.427C372.651 165.73 372.929 165.06 373.424 164.567C373.919 164.073 374.59 163.796 375.29 163.796H452.007V173.227Z" fill="url(#paint4_linear)"/>
<path d="M452.006 172.116H376.678C375.978 172.116 375.307 171.839 374.812 171.346C374.317 170.852 374.039 170.183 374.039 169.485V166.975C374.039 166.277 374.317 165.608 374.812 165.114C375.307 164.621 375.978 164.344 376.678 164.344H452.006V172.116Z" fill="#B0BEC5"/>
<path d="M256.51 121.944L311.926 170.822L376.313 157.26L371.326 142.794L321.431 148.667L271.509 104.988C270.315 103.943 268.913 103.159 267.396 102.689C265.878 102.218 264.278 102.071 262.699 102.256C261.121 102.442 259.599 102.956 258.233 103.766C256.867 104.576 255.686 105.663 254.768 106.956C253.158 109.23 252.445 112.017 252.766 114.782C253.088 117.547 254.421 120.097 256.51 121.944Z" fill="url(#paint5_linear)"/>
<path d="M376.282 157.26C376.282 157.26 392.706 157.713 398.775 148.672C404.845 139.631 371.294 142.794 371.294 142.794L376.282 157.26Z" fill="url(#paint6_linear)"/>
<path d="M249.243 90.0849C265.018 90.0849 277.806 77.3338 277.806 61.6044C277.806 45.8751 265.018 33.124 249.243 33.124C233.468 33.124 220.68 45.8751 220.68 61.6044C220.68 77.3338 233.468 90.0849 249.243 90.0849Z" fill="url(#paint7_linear)"/>
<path d="M237.458 92.795C237.458 92.795 200.778 117.423 210.094 193.561C211.228 202.758 210.426 212.091 207.74 220.962L202.99 236.539C202.99 236.539 283.685 238.35 285.95 236.539C287.353 235.418 286.261 206.727 282.324 166.927C279.912 142.546 287.475 108.63 261.472 90.0953L237.458 92.795Z" fill="url(#paint8_linear)"/>
<path d="M285.96 235.639L321.774 311.13L325.854 387.972H300.468L289.586 308.414L267.826 269.993L246.066 387.972H220.68L228.386 300.278L203 236.545L285.96 235.639Z" fill="url(#paint9_linear)"/>
<path d="M325.859 387.972L333.564 399.723C333.564 399.723 359.425 409.669 348.073 415.995H298.658V387.972H325.859Z" fill="url(#paint10_linear)"/>
<path d="M245.617 387.972L253.323 399.723C253.323 399.723 279.183 409.669 267.831 415.995H218.416V387.972H245.617Z" fill="url(#paint11_linear)"/>
<g opacity="0.2">
<path opacity="0.2" d="M249.697 32.6767C244.766 32.6666 239.917 33.9361 235.627 36.3604C242.339 33.4455 249.917 33.2122 256.797 35.7087C263.676 38.2052 269.332 43.2409 272.595 49.7756C275.857 56.3104 276.479 63.8451 274.33 70.8235C272.182 77.802 267.428 83.6912 261.05 87.2748C267.077 84.6712 272.02 80.0758 275.046 74.2628C278.072 68.4498 278.997 61.7744 277.663 55.3612C276.33 48.948 272.821 43.1889 267.727 39.0541C262.633 34.9192 256.266 32.6614 249.697 32.6609V32.6767Z" fill="url(#paint12_linear)"/>
</g>
<path d="M283.965 15L276.017 27.1037C273.162 31.4557 269.013 36.3972 263.878 35.3868C261.493 34.9184 259.582 33.2029 257.677 31.7031C251.444 26.7669 243.733 23.4199 235.775 23.3726C227.816 23.3252 219.672 26.8984 215.192 33.4502C211.872 38.2864 210.727 44.2541 210.072 50.0743C208.758 61.7149 210.072 75.4552 219.82 81.9912C220.607 82.6167 221.579 82.9662 222.586 82.9858C223.641 82.9174 224.496 82.2491 225.288 81.586C237.49 71.3926 244.288 54.8158 258.981 47.8167C265.467 44.7329 274.903 44.7066 280.134 39.4652C287.839 31.761 279.31 22.0885 283.965 15Z" fill="url(#paint13_linear)"/>
<g opacity="0.2">
<path opacity="0.2" d="M254.505 31.703C256.41 33.2133 258.316 34.9289 260.706 35.3867C261.677 35.5787 262.678 35.559 263.641 35.3289C261.366 34.8026 259.524 33.1449 257.682 31.6925C251.449 26.7563 243.739 23.4094 235.78 23.362C235.221 23.362 234.666 23.362 234.107 23.4094C241.548 23.8461 248.7 27.1036 254.505 31.703Z" fill="url(#paint14_linear)"/>
<path opacity="0.2" d="M283.965 15L279.379 21.9938C279.817 27.7457 282.35 34.0975 276.978 39.4652C271.742 44.7277 262.306 44.7277 255.825 47.8167C241.116 54.8158 234.329 71.3979 222.132 81.586C221.714 81.951 221.261 82.2753 220.781 82.5543C221.338 82.8583 221.967 83.0074 222.602 82.9858C223.657 82.9174 224.512 82.2491 225.304 81.586C237.506 71.3926 244.303 54.8158 258.996 47.8167C265.483 44.7329 274.919 44.7066 280.149 39.4652C287.839 31.761 279.31 22.0885 283.965 15Z" fill="url(#paint15_linear)"/>
</g>
<g opacity="0.2">
<path opacity="0.2" d="M282.339 166.933C279.927 142.552 287.49 108.635 261.487 90.1007L255.982 90.7217C280.972 109.393 273.61 142.82 275.995 166.943C279.933 206.743 281.03 235.434 279.621 236.555C278.93 237.081 270.945 237.324 260.183 237.355C274.027 237.392 285.147 237.213 285.97 236.555C287.369 235.424 286.271 206.733 282.339 166.933Z" fill="url(#paint16_linear)"/>
</g>
<path d="M240.54 131.611L295.956 180.489L360.343 166.927L355.308 152.466L305.44 158.344L255.518 114.666C254.324 113.621 252.922 112.837 251.404 112.366C249.887 111.896 248.287 111.749 246.708 111.934C245.13 112.12 243.608 112.634 242.242 113.444C240.876 114.253 239.695 115.34 238.777 116.634C237.172 118.91 236.465 121.695 236.79 124.458C237.115 127.221 238.45 129.768 240.54 131.611Z" fill="url(#paint17_linear)"/>
<path d="M360.312 166.933C360.312 166.933 376.736 167.385 382.805 158.344C388.875 149.303 355.309 152.466 355.309 152.466L360.312 166.933Z" fill="url(#paint18_linear)"/>
<path d="M250.673 77.8813H247.802C241.835 77.8813 236.999 82.7042 236.999 88.6536V91.5163C236.999 97.4657 241.835 102.289 247.802 102.289H250.673C256.64 102.289 261.476 97.4657 261.476 91.5163V88.6536C261.476 82.7042 256.64 77.8813 250.673 77.8813Z" fill="url(#paint19_linear)"/>
<g opacity="0.2">
<path opacity="0.2" d="M262.838 269.993L241.078 387.972H246.066L266.601 276.634L262.838 269.993Z" fill="url(#paint20_linear)"/>
<path opacity="0.2" d="M321.774 311.13L285.96 235.639L280.999 235.692L316.786 311.13L320.866 387.972H325.854L321.774 311.13Z" fill="url(#paint21_linear)"/>
</g>
<g opacity="0.2">
<path opacity="0.2" d="M333.565 399.729L325.859 387.977H323.59L331.295 399.729C331.295 399.729 357.14 409.685 345.809 416H348.073C359.404 409.685 333.565 399.729 333.565 399.729Z" fill="url(#paint22_linear)"/>
</g>
<g opacity="0.2">
<path opacity="0.2" d="M255.592 399.729L247.886 387.977H245.622L253.327 399.729C253.327 399.729 279.188 409.675 267.836 416H270.1C281.421 409.685 255.592 399.729 255.592 399.729Z" fill="url(#paint23_linear)"/>
</g>
<g opacity="0.2">
<path opacity="0.2" d="M363.542 154.813L362.576 152.014L316.317 157.466L363.542 154.813Z" fill="url(#paint24_linear)"/>
</g>
<path d="M225.784 131.08L241.189 102.068L266.86 111.74L241.189 148.714L225.784 131.08Z" fill="url(#paint25_linear)"/>
<path d="M257.74 124.507L311.62 172.048L374.229 158.86L369.379 144.793L320.877 150.508L272.322 108.009C271.16 106.992 269.797 106.23 268.321 105.773C266.845 105.315 265.289 105.172 263.754 105.352C262.219 105.533 260.739 106.033 259.41 106.821C258.081 107.609 256.933 108.666 256.041 109.924C254.473 112.137 253.78 114.849 254.093 117.54C254.407 120.23 255.705 122.711 257.74 124.507Z" fill="#CA7070"/>
<path d="M374.229 158.855C374.229 158.855 390.204 159.297 396.105 150.503C402.005 141.71 369.378 144.788 369.378 144.788L374.229 158.855Z" fill="#CA7070"/>
<path d="M250.668 93.5213C266.009 93.5213 278.444 81.1212 278.444 65.8249C278.444 50.5286 266.009 38.1285 250.668 38.1285C235.328 38.1285 222.892 50.5286 222.892 65.8249C222.892 81.1212 235.328 93.5213 250.668 93.5213Z" fill="#CA7070"/>
<path d="M239.2 96.1578C239.2 96.1578 203.523 120.113 212.585 194.166C213.688 203.113 212.908 212.191 210.294 220.82L205.692 235.971C205.692 235.971 284.176 237.729 286.382 235.971C287.749 234.882 286.683 206.975 282.857 168.264C280.514 144.551 287.865 111.561 262.575 93.5371L239.2 96.1578Z" fill="#263238"/>
<path d="M286.382 235.087L321.215 308.509L325.179 383.247H300.49L289.908 305.872L268.744 268.498L247.581 383.247H222.887L230.381 297.958L205.692 235.966L286.382 235.087Z" fill="#5CAADE"/>
<path d="M325.184 383.246L332.678 394.676C332.678 394.676 357.811 404.349 346.786 410.506H298.727V383.246H325.184Z" fill="#263238"/>
<path d="M247.116 383.246L254.61 394.676C254.61 394.676 279.743 404.349 268.718 410.506H220.686V383.246H247.116Z" fill="#263238"/>
<path opacity="0.2" d="M251.111 37.6865C246.314 37.6817 241.597 38.9222 237.426 41.286C243.941 38.5204 251.268 38.3395 257.912 40.7806C264.555 43.2216 270.013 48.1002 273.17 54.4194C276.327 60.7386 276.945 68.0214 274.897 74.7794C272.849 81.5375 268.29 87.2607 262.152 90.7795C268.011 88.2449 272.814 83.7751 275.755 78.1226C278.696 72.4701 279.593 65.98 278.297 59.7448C277.001 53.5096 273.59 47.91 268.639 43.8886C263.687 39.8672 257.497 37.6695 251.111 37.6655V37.6865Z" fill="white"/>
<path d="M284.435 20.494L276.708 32.2767C273.932 36.4867 269.9 41.3123 264.923 40.3335C262.601 39.8757 260.749 38.2285 258.896 36.7393C252.827 31.9399 245.332 28.6824 237.616 28.6351C229.901 28.5877 221.958 32.0662 217.561 38.4338C214.337 43.1332 213.223 48.9587 212.579 54.6053C211.302 65.9249 212.579 79.2916 222.079 85.6539C222.844 86.2597 223.788 86.5981 224.765 86.6169C225.768 86.5485 226.623 85.9012 227.404 85.2539C239.268 75.3447 245.876 59.2152 260.179 52.4109C266.485 49.4113 275.663 49.385 280.762 44.2909C288.208 36.7971 279.912 27.3879 284.435 20.494Z" fill="#263238"/>
<g opacity="0.2">
<path opacity="0.2" d="M255.803 36.7392C257.656 38.2074 259.498 39.8967 261.83 40.3335C262.775 40.5208 263.749 40.5029 264.685 40.2808C262.474 39.7546 260.68 38.1759 258.88 36.7445C252.827 31.9398 245.332 28.6824 237.616 28.635C237.088 28.635 236.534 28.635 235.991 28.6824C243.184 29.0981 250.124 32.2398 255.803 36.7392Z" fill="white"/>
<path opacity="0.2" d="M284.434 20.494L279.969 27.2984C280.392 32.8924 282.862 39.0547 277.631 44.2909C272.539 49.385 263.382 49.4113 257.049 52.4109C242.741 59.2152 236.144 75.3447 224.274 85.2539C223.867 85.6092 223.427 85.9246 222.96 86.1959C223.501 86.4917 224.111 86.6371 224.728 86.6169C225.731 86.5485 226.586 85.9012 227.367 85.2539C239.231 75.3447 245.839 59.2152 260.141 52.4109C266.448 49.4113 275.626 49.385 280.724 44.2909C288.208 36.7971 279.911 27.3879 284.434 20.494Z" fill="white"/>
</g>
<path opacity="0.2" d="M282.856 168.259C280.513 144.546 287.865 111.556 262.574 93.5319L257.223 94.137C281.526 112.298 274.365 144.82 276.687 168.275C280.513 206.985 281.579 234.892 280.212 235.982C279.542 236.508 271.768 236.729 261.308 236.76C274.776 236.797 285.585 236.618 286.387 235.982C287.754 234.877 286.699 206.975 282.856 168.259Z" fill="white"/>
<path d="M242.203 133.932L296.083 181.452L358.692 168.264L353.842 154.198L305.34 159.913L256.785 117.413C255.623 116.396 254.26 115.634 252.784 115.177C251.308 114.719 249.752 114.576 248.217 114.756C246.681 114.937 245.201 115.437 243.873 116.225C242.544 117.013 241.396 118.07 240.503 119.328C238.93 121.543 238.233 124.259 238.547 126.955C238.86 129.651 240.163 132.136 242.203 133.932Z" fill="#CA7070"/>
<path d="M358.692 168.259C358.692 168.259 374.667 168.701 380.568 159.907C386.468 151.114 353.841 154.192 353.841 154.192L358.692 168.259Z" fill="#CA7070"/>
<path d="M251.765 81.6492H249.565C243.598 81.6492 238.761 86.4721 238.761 92.4214V94.6159C238.761 100.565 243.598 105.388 249.565 105.388H251.765C257.732 105.388 262.569 100.565 262.569 94.6159V92.4214C262.569 86.4721 257.732 81.6492 251.765 81.6492Z" fill="#CA7070"/>
<g opacity="0.2">
<path opacity="0.2" d="M263.894 268.498L242.73 383.247H247.581L267.551 274.961L263.894 268.498Z" fill="white"/>
<path opacity="0.2" d="M321.215 308.509L286.382 235.087L281.553 235.14L316.365 308.509L320.328 383.247H325.179L321.215 308.509Z" fill="white"/>
</g>
<path opacity="0.2" d="M332.678 394.682L325.184 383.252H322.978L330.472 394.682C330.472 394.682 355.604 404.354 344.579 410.511H346.785C357.81 404.354 332.678 394.682 332.678 394.682Z" fill="white"/>
<path opacity="0.2" d="M256.843 394.682L249.349 383.252H247.116L254.611 394.682C254.611 394.682 279.743 404.354 268.718 410.511H270.924C281.949 404.354 256.843 394.682 256.843 394.682Z" fill="white"/>
<path opacity="0.2" d="M361.832 156.476L360.898 153.755L315.906 159.055L361.832 156.476Z" fill="white"/>
<path d="M227.853 133.39L242.831 105.178L267.799 114.582L242.831 150.54L227.853 133.39Z" fill="#263238"/>
<path d="M446.739 165.17L492.127 103.63C492.333 103.352 492.592 103.116 492.889 102.937C493.186 102.758 493.515 102.639 493.858 102.587C494.202 102.535 494.552 102.552 494.889 102.635C495.226 102.718 495.543 102.867 495.822 103.073L497.933 104.625C498.212 104.83 498.449 105.088 498.628 105.384C498.808 105.68 498.927 106.009 498.979 106.351C499.031 106.693 499.015 107.042 498.931 107.378C498.848 107.714 498.699 108.03 498.492 108.309L453.104 169.848L446.739 165.17Z" fill="url(#paint26_linear)"/>
<path d="M447.642 165.828L492.259 105.309C492.465 105.03 492.723 104.795 493.021 104.616C493.318 104.437 493.647 104.318 493.99 104.266C494.333 104.214 494.684 104.23 495.02 104.314C495.357 104.397 495.674 104.546 495.954 104.751L496.17 104.909C496.45 105.114 496.686 105.372 496.865 105.668C497.045 105.965 497.164 106.293 497.216 106.635C497.268 106.978 497.252 107.327 497.168 107.663C497.085 107.999 496.936 108.315 496.729 108.593L452.112 169.111L447.642 165.828Z" fill="#B0BEC5"/>
</g>
<defs>
<linearGradient id="paint0_linear" x1="445.589" y1="403.538" x2="445.589" y2="164.465" gradientUnits="userSpaceOnUse">
<stop stop-color="#808080" stop-opacity="0.25"/>
<stop offset="0.54" stop-color="#808080" stop-opacity="0.12"/>
<stop offset="1" stop-color="#808080" stop-opacity="0.1"/>
</linearGradient>
<linearGradient id="paint1_linear" x1="25653.2" y1="17011.5" x2="25653.2" y2="13698.9" gradientUnits="userSpaceOnUse">
<stop stop-color="#808080" stop-opacity="0.25"/>
<stop offset="0.54" stop-color="#808080" stop-opacity="0.12"/>
<stop offset="1" stop-color="#808080" stop-opacity="0.1"/>
</linearGradient>
<linearGradient id="paint2_linear" x1="25653.2" y1="23250.2" x2="25653.2" y2="19937.6" gradientUnits="userSpaceOnUse">
<stop stop-color="#808080" stop-opacity="0.25"/>
<stop offset="0.54" stop-color="#808080" stop-opacity="0.12"/>
<stop offset="1" stop-color="#808080" stop-opacity="0.1"/>
</linearGradient>
<linearGradient id="paint3_linear" x1="25653.2" y1="29447" x2="25653.2" y2="26134.3" gradientUnits="userSpaceOnUse">
<stop stop-color="#808080" stop-opacity="0.25"/>
<stop offset="0.54" stop-color="#808080" stop-opacity="0.12"/>
<stop offset="1" stop-color="#808080" stop-opacity="0.1"/>
</linearGradient>
<linearGradient id="paint4_linear" x1="53148.6" y1="3649.91" x2="53148.6" y2="3481.3" gradientUnits="userSpaceOnUse">
<stop stop-color="#808080" stop-opacity="0.25"/>
<stop offset="0.54" stop-color="#808080" stop-opacity="0.12"/>
<stop offset="1" stop-color="#808080" stop-opacity="0.1"/>
</linearGradient>
<linearGradient id="paint5_linear" x1="59548.3" y1="25163.8" x2="59548.3" y2="16207.9" gradientUnits="userSpaceOnUse">
<stop stop-color="#808080" stop-opacity="0.25"/>
<stop offset="0.54" stop-color="#808080" stop-opacity="0.12"/>
<stop offset="1" stop-color="#808080" stop-opacity="0.1"/>
</linearGradient>
<linearGradient id="paint6_linear" x1="17696" y1="5234.46" x2="17696" y2="4806.49" gradientUnits="userSpaceOnUse">
<stop stop-color="#808080" stop-opacity="0.25"/>
<stop offset="0.54" stop-color="#808080" stop-opacity="0.12"/>
<stop offset="1" stop-color="#808080" stop-opacity="0.1"/>
</linearGradient>
<linearGradient id="paint7_linear" x1="5226.03" y1="8160.31" x2="5226.03" y2="1995.43" gradientUnits="userSpaceOnUse">
<stop stop-color="#808080" stop-opacity="0.25"/>
<stop offset="0.54" stop-color="#808080" stop-opacity="0.12"/>
<stop offset="1" stop-color="#808080" stop-opacity="0.1"/>
</linearGradient>
<linearGradient id="paint8_linear" x1="29240.5" y1="72464.2" x2="29240.5" y2="31259.7" gradientUnits="userSpaceOnUse">
<stop stop-color="#808080" stop-opacity="0.25"/>
<stop offset="0.54" stop-color="#808080" stop-opacity="0.12"/>
<stop offset="1" stop-color="#808080" stop-opacity="0.1"/>
</linearGradient>
<linearGradient id="paint9_linear" x1="14502" y1="108200" x2="14502" y2="64104.1" gradientUnits="userSpaceOnUse">
<stop stop-color="#808080" stop-opacity="0.25"/>
<stop offset="0.54" stop-color="#808080" stop-opacity="0.12"/>
<stop offset="1" stop-color="#808080" stop-opacity="0.1"/>
</linearGradient>
<linearGradient id="paint10_linear" x1="26404.8" y1="23674.8" x2="26404.8" y2="22182.3" gradientUnits="userSpaceOnUse">
<stop stop-color="#808080" stop-opacity="0.25"/>
<stop offset="0.54" stop-color="#808080" stop-opacity="0.12"/>
<stop offset="1" stop-color="#808080" stop-opacity="0.1"/>
</linearGradient>
<linearGradient id="paint11_linear" x1="18373.5" y1="23674.8" x2="18373.5" y2="22182.3" gradientUnits="userSpaceOnUse">
<stop stop-color="#808080" stop-opacity="0.25"/>
<stop offset="0.54" stop-color="#808080" stop-opacity="0.12"/>
<stop offset="1" stop-color="#808080" stop-opacity="0.1"/>
</linearGradient>
<linearGradient id="paint12_linear" x1="16035.5" y1="11303.3" x2="16035.5" y2="5635.5" gradientUnits="userSpaceOnUse">
<stop stop-color="#808080" stop-opacity="0.25"/>
<stop offset="0.54" stop-color="#808080" stop-opacity="0.12"/>
<stop offset="1" stop-color="#808080" stop-opacity="0.1"/>
</linearGradient>
<linearGradient id="paint13_linear" x1="26327.1" y1="13489.8" x2="26327.1" y2="4706.02" gradientUnits="userSpaceOnUse">
<stop stop-color="#808080" stop-opacity="0.25"/>
<stop offset="0.54" stop-color="#808080" stop-opacity="0.12"/>
<stop offset="1" stop-color="#808080" stop-opacity="0.1"/>
</linearGradient>
<linearGradient id="paint14_linear" x1="10729.3" y1="1336.27" x2="10729.3" y2="1055.48" gradientUnits="userSpaceOnUse">
<stop stop-color="#808080" stop-opacity="0.25"/>
<stop offset="0.54" stop-color="#808080" stop-opacity="0.12"/>
<stop offset="1" stop-color="#808080" stop-opacity="0.1"/>
</linearGradient>
<linearGradient id="paint15_linear" x1="23090.4" y1="13490.2" x2="23090.4" y2="4706.16" gradientUnits="userSpaceOnUse">
<stop stop-color="#808080" stop-opacity="0.25"/>
<stop offset="0.54" stop-color="#808080" stop-opacity="0.12"/>
<stop offset="1" stop-color="#808080" stop-opacity="0.1"/>
</linearGradient>
<linearGradient id="paint16_linear" x1="12414.5" y1="72469.3" x2="12414.5" y2="31261.9" gradientUnits="userSpaceOnUse">
<stop stop-color="#808080" stop-opacity="0.25"/>
<stop offset="0.54" stop-color="#808080" stop-opacity="0.12"/>
<stop offset="1" stop-color="#808080" stop-opacity="0.1"/>
</linearGradient>
<linearGradient id="paint17_linear" x1="55794" y1="26430.4" x2="55794" y2="17476.6" gradientUnits="userSpaceOnUse">
<stop stop-color="#808080" stop-opacity="0.25"/>
<stop offset="0.54" stop-color="#808080" stop-opacity="0.12"/>
<stop offset="1" stop-color="#808080" stop-opacity="0.1"/>
</linearGradient>
<linearGradient id="paint18_linear" x1="16835.3" y1="5519.8" x2="16835.3" y2="5091.97" gradientUnits="userSpaceOnUse">
<stop stop-color="#808080" stop-opacity="0.25"/>
<stop offset="0.54" stop-color="#808080" stop-opacity="0.12"/>
<stop offset="1" stop-color="#808080" stop-opacity="0.1"/>
</linearGradient>
<linearGradient id="paint19_linear" x1="2381.75" y1="4126.33" x2="2381.75" y2="2994.31" gradientUnits="userSpaceOnUse">
<stop stop-color="#808080" stop-opacity="0.25"/>
<stop offset="0.54" stop-color="#808080" stop-opacity="0.12"/>
<stop offset="1" stop-color="#808080" stop-opacity="0.1"/>
</linearGradient>
<linearGradient id="paint20_linear" x1="2699.7" y1="83886.6" x2="2699.7" y2="57436.8" gradientUnits="userSpaceOnUse">
<stop stop-color="#808080" stop-opacity="0.25"/>
<stop offset="0.54" stop-color="#808080" stop-opacity="0.12"/>
<stop offset="1" stop-color="#808080" stop-opacity="0.1"/>
</linearGradient>
<linearGradient id="paint21_linear" x1="8816.46" y1="108200" x2="8816.46" y2="64104.1" gradientUnits="userSpaceOnUse">
<stop stop-color="#808080" stop-opacity="0.25"/>
<stop offset="0.54" stop-color="#808080" stop-opacity="0.12"/>
<stop offset="1" stop-color="#808080" stop-opacity="0.1"/>
</linearGradient>
<linearGradient id="paint22_linear" x1="14626.1" y1="23674.8" x2="14626.1" y2="22182.3" gradientUnits="userSpaceOnUse">
<stop stop-color="#808080" stop-opacity="0.25"/>
<stop offset="0.54" stop-color="#808080" stop-opacity="0.12"/>
<stop offset="1" stop-color="#808080" stop-opacity="0.1"/>
</linearGradient>
<linearGradient id="paint23_linear" x1="10502.8" y1="23674.8" x2="10502.8" y2="22182.3" gradientUnits="userSpaceOnUse">
<stop stop-color="#808080" stop-opacity="0.25"/>
<stop offset="0.54" stop-color="#808080" stop-opacity="0.12"/>
<stop offset="1" stop-color="#808080" stop-opacity="0.1"/>
</linearGradient>
<linearGradient id="paint24_linear" x1="12568.8" y1="1627.97" x2="12568.8" y2="1571.49" gradientUnits="userSpaceOnUse">
<stop stop-color="#808080" stop-opacity="0.25"/>
<stop offset="0.54" stop-color="#808080" stop-opacity="0.12"/>
<stop offset="1" stop-color="#808080" stop-opacity="0.1"/>
</linearGradient>
<linearGradient id="paint25_linear" x1="3597.32" y1="11954.5" x2="3597.32" y2="7819.73" gradientUnits="userSpaceOnUse">
<stop stop-color="#808080" stop-opacity="0.25"/>
<stop offset="0.54" stop-color="#808080" stop-opacity="0.12"/>
<stop offset="1" stop-color="#808080" stop-opacity="0.1"/>
</linearGradient>
<linearGradient id="paint26_linear" x1="41202.3" y1="24542.4" x2="41202.3" y2="15942.1" gradientUnits="userSpaceOnUse">
<stop stop-color="#808080" stop-opacity="0.25"/>
<stop offset="0.54" stop-color="#808080" stop-opacity="0.12"/>
<stop offset="1" stop-color="#808080" stop-opacity="0.1"/>
</linearGradient>
<clipPath id="clip0">
<rect width="350" height="401" fill="white" transform="translate(203 15)"/>
</clipPath>
</defs>
</svg>
