<svg width="161" height="121" viewBox="0 0 161 121" fill="none" xmlns="http://www.w3.org/2000/svg">
<path fill-rule="evenodd" clip-rule="evenodd" d="M29.8149 84.1097H105.097C128.562 84.1097 147.583 65.2811 147.583 42.0549C147.583 18.8286 128.562 0 105.097 0H29.8149V8.85366H105.097C123.622 8.85366 138.639 23.7184 138.639 42.0549C138.639 60.3914 123.622 75.2561 105.097 75.2561H29.8149V84.1097Z" fill="black"/>
<path fill-rule="evenodd" clip-rule="evenodd" d="M78.1957 28.9972L43.5518 28.5658C20.0892 28.2735 0.829681 46.8636 0.53444 70.0881C0.239198 93.3126 19.02 112.377 42.4826 112.669L77.1265 113.1L77.2391 104.247L42.5952 103.816C24.0721 103.585 9.24508 88.5346 9.47818 70.1995C9.71126 51.8645 24.9162 37.1879 43.4392 37.4187L78.0831 37.8502L78.1957 28.9972Z" fill="black"/>
<path d="M65.5924 84.1099H74.5369V54.5977H65.5924V84.1099Z" fill="black"/>
<path d="M88.7886 113.858C87.0991 113.858 85.5786 113.514 84.2269 112.825C82.8952 112.117 81.8517 111.143 81.0963 109.904C80.341 108.664 79.9634 107.257 79.9634 105.683C79.9634 104.109 80.341 102.703 81.0963 101.463C81.8517 100.224 82.8952 99.2595 84.2269 98.5708C85.5786 97.8625 87.0991 97.5084 88.7886 97.5084C90.478 97.5084 91.9887 97.8625 93.3204 98.5708C94.6521 99.2595 95.6956 100.224 96.451 101.463C97.2063 102.703 97.5839 104.109 97.5839 105.683C97.5839 107.257 97.2063 108.664 96.451 109.904C95.6956 111.143 94.6521 112.117 93.3204 112.825C91.9887 113.514 90.478 113.858 88.7886 113.858ZM88.7886 110.081C89.9812 110.081 90.9551 109.687 91.7104 108.9C92.4856 108.093 92.8732 107.021 92.8732 105.683C92.8732 104.345 92.4856 103.283 91.7104 102.496C90.9551 101.689 89.9812 101.286 88.7886 101.286C87.596 101.286 86.6121 101.689 85.8369 102.496C85.0617 103.283 84.6741 104.345 84.6741 105.683C84.6741 107.021 85.0617 108.093 85.8369 108.9C86.6121 109.687 87.596 110.081 88.7886 110.081ZM117.031 91.724V113.622H112.589V111.792C111.436 113.169 109.766 113.858 107.58 113.858C106.069 113.858 104.698 113.524 103.466 112.855C102.253 112.186 101.299 111.232 100.603 109.992C99.9077 108.753 99.5599 107.316 99.5599 105.683C99.5599 104.05 99.9077 102.614 100.603 101.374C101.299 100.135 102.253 99.1807 103.466 98.5118C104.698 97.8429 106.069 97.5084 107.58 97.5084C109.627 97.5084 111.227 98.1478 112.38 99.4267V91.724H117.031ZM108.385 110.081C109.558 110.081 110.532 109.687 111.307 108.9C112.082 108.093 112.47 107.021 112.47 105.683C112.47 104.345 112.082 103.283 111.307 102.496C110.532 101.689 109.558 101.286 108.385 101.286C107.193 101.286 106.209 101.689 105.433 102.496C104.658 103.283 104.271 104.345 104.271 105.683C104.271 107.021 104.658 108.093 105.433 108.9C106.209 109.687 107.193 110.081 108.385 110.081ZM137.048 105.742C137.048 105.801 137.019 106.214 136.959 106.982H124.824C125.043 107.966 125.56 108.743 126.375 109.313C127.19 109.884 128.203 110.169 129.416 110.169C130.251 110.169 130.986 110.051 131.622 109.815C132.278 109.559 132.884 109.166 133.441 108.634L135.916 111.291C134.405 113.002 132.199 113.858 129.297 113.858C127.488 113.858 125.888 113.514 124.496 112.825C123.105 112.117 122.032 111.143 121.276 109.904C120.521 108.664 120.143 107.257 120.143 105.683C120.143 104.129 120.511 102.732 121.247 101.493C122.002 100.233 123.026 99.2595 124.318 98.5708C125.629 97.8625 127.09 97.5084 128.7 97.5084C130.271 97.5084 131.692 97.8429 132.964 98.5118C134.236 99.1807 135.23 100.145 135.945 101.404C136.681 102.644 137.048 104.09 137.048 105.742ZM128.73 100.991C127.677 100.991 126.792 101.286 126.077 101.876C125.361 102.466 124.924 103.273 124.765 104.296H132.666C132.507 103.293 132.069 102.496 131.354 101.906C130.638 101.296 129.764 100.991 128.73 100.991Z" fill="black"/>
<path d="M159.48 76.23C159.48 76.289 159.45 76.7022 159.39 77.4695H147.256C147.474 78.4533 147.991 79.2303 148.806 79.801C149.621 80.3716 150.635 80.6568 151.847 80.6568C152.682 80.6568 153.417 80.5388 154.053 80.3027C154.709 80.0469 155.316 79.6534 155.872 79.1222L158.347 81.7783C156.837 83.49 154.63 84.3458 151.728 84.3458C149.92 84.3458 148.319 84.0016 146.928 83.3129C145.536 82.6046 144.463 81.6307 143.708 80.3912C142.952 79.1517 142.575 77.745 142.575 76.171C142.575 74.6167 142.942 73.2197 143.678 71.9802C144.433 70.7211 145.457 69.7472 146.749 69.0585C148.061 68.3502 149.522 67.9961 151.132 67.9961C152.701 67.9961 154.123 68.3306 155.395 68.9995C156.667 69.6684 157.661 70.6326 158.377 71.8917C159.111 73.1312 159.48 74.5773 159.48 76.23ZM151.161 71.4785C150.107 71.4785 149.223 71.7737 148.508 72.3639C147.792 72.9541 147.355 73.7609 147.196 74.7839H155.097C154.937 73.7805 154.501 72.9837 153.785 72.3934C153.07 71.7835 152.194 71.4785 151.161 71.4785Z" fill="black"/>
</svg>
