<svg width="1920" height="64" viewBox="0 0 1920 64" fill="none" xmlns="http://www.w3.org/2000/svg">
<path d="M0 0H1920V64H0V0Z" fill="#0C37D1"/>
<path fill-rule="evenodd" clip-rule="evenodd" d="M195.778 42.1463H228.042C238.098 42.1463 246.25 34.0547 246.25 24.0732C246.25 14.0916 238.098 6 228.042 6H195.778V9.80488H228.042C235.981 9.80488 242.417 16.193 242.417 24.0732C242.417 31.9533 235.981 38.3415 228.042 38.3415H195.778V42.1463Z" fill="white"/>
<path fill-rule="evenodd" clip-rule="evenodd" d="M216.513 18.4616L201.665 18.2762C191.61 18.1506 183.356 26.1397 183.229 36.1205C183.103 46.1013 191.152 54.294 201.207 54.4197L216.054 54.6051L216.103 50.8005L201.255 50.615C193.317 50.5159 186.962 44.0479 187.062 36.1684C187.162 28.2888 193.678 21.9816 201.617 22.0807L216.464 22.2662L216.513 18.4616Z" fill="white"/>
<path d="M211.111 42.1464H214.945V29.4634H211.111V42.1464Z" fill="white"/>
<path d="M221.052 54.9308C220.328 54.9308 219.677 54.7828 219.097 54.4869C218.527 54.1825 218.079 53.7639 217.756 53.2313C217.432 52.6986 217.27 52.0941 217.27 51.4176C217.27 50.7412 217.432 50.1366 217.756 49.6039C218.079 49.0713 218.527 48.657 219.097 48.361C219.677 48.0566 220.328 47.9044 221.052 47.9044C221.776 47.9044 222.424 48.0566 222.994 48.361C223.565 48.657 224.012 49.0713 224.336 49.6039C224.66 50.1366 224.822 50.7412 224.822 51.4176C224.822 52.0941 224.66 52.6986 224.336 53.2313C224.012 53.7639 223.565 54.1825 222.994 54.4869C222.424 54.7828 221.776 54.9308 221.052 54.9308ZM221.052 53.3074C221.563 53.3074 221.981 53.1382 222.304 52.8C222.637 52.4534 222.803 51.9926 222.803 51.4176C222.803 50.8426 222.637 50.386 222.304 50.0478C221.981 49.7012 221.563 49.5278 221.052 49.5278C220.541 49.5278 220.119 49.7012 219.787 50.0478C219.455 50.386 219.289 50.8426 219.289 51.4176C219.289 51.9926 219.455 52.4534 219.787 52.8C220.119 53.1382 220.541 53.3074 221.052 53.3074ZM233.156 45.4186V54.8293H231.252V54.043C230.758 54.6348 230.043 54.9308 229.106 54.9308C228.458 54.9308 227.871 54.787 227.342 54.4996C226.823 54.2121 226.414 53.802 226.116 53.2693C225.818 52.7366 225.669 52.1194 225.669 51.4176C225.669 50.7158 225.818 50.0986 226.116 49.5659C226.414 49.0332 226.823 48.6231 227.342 48.3357C227.871 48.0482 228.458 47.9044 229.106 47.9044C229.983 47.9044 230.669 48.1792 231.163 48.7288V45.4186H233.156ZM229.451 53.3074C229.953 53.3074 230.371 53.1382 230.703 52.8C231.035 52.4534 231.201 51.9926 231.201 51.4176C231.201 50.8426 231.035 50.386 230.703 50.0478C230.371 49.7012 229.953 49.5278 229.451 49.5278C228.94 49.5278 228.518 49.7012 228.186 50.0478C227.854 50.386 227.687 50.8426 227.687 51.4176C227.687 51.9926 227.854 52.4534 228.186 52.8C228.518 53.1382 228.94 53.3074 229.451 53.3074ZM241.735 51.443C241.735 51.4683 241.722 51.6459 241.697 51.9757H236.496C236.59 52.3984 236.811 52.7324 237.161 52.9776C237.51 53.2228 237.944 53.3454 238.464 53.3454C238.822 53.3454 239.137 53.2947 239.409 53.1932C239.691 53.0833 239.95 52.9142 240.189 52.6859L241.249 53.8274C240.602 54.563 239.657 54.9308 238.413 54.9308C237.638 54.9308 236.952 54.7828 236.356 54.4869C235.759 54.1825 235.299 53.7639 234.976 53.2313C234.652 52.6986 234.49 52.0941 234.49 51.4176C234.49 50.7497 234.648 50.1493 234.963 49.6166C235.287 49.0755 235.725 48.657 236.279 48.361C236.841 48.0566 237.467 47.9044 238.157 47.9044C238.83 47.9044 239.439 48.0482 239.984 48.3357C240.53 48.6231 240.956 49.0375 241.262 49.5786C241.577 50.1113 241.735 50.7327 241.735 51.443ZM238.17 49.401C237.719 49.401 237.339 49.5278 237.033 49.7815C236.726 50.0352 236.539 50.3819 236.471 50.8215H239.857C239.789 50.3903 239.601 50.0478 239.294 49.7942C238.988 49.5321 238.613 49.401 238.17 49.401Z" fill="white"/>
<path d="M251.348 38.76C251.348 38.7853 251.336 38.9629 251.31 39.2927H246.109C246.203 39.7154 246.425 40.0494 246.774 40.2946C247.123 40.5398 247.558 40.6624 248.077 40.6624C248.435 40.6624 248.75 40.6117 249.023 40.5102C249.304 40.4003 249.564 40.2312 249.802 40.0029L250.863 41.1444C250.216 41.88 249.27 42.2478 248.026 42.2478C247.251 42.2478 246.565 42.0998 245.969 41.8039C245.373 41.4995 244.913 41.0809 244.589 40.5483C244.265 40.0156 244.103 39.411 244.103 38.7346C244.103 38.0667 244.261 37.4663 244.576 36.9336C244.9 36.3925 245.338 35.974 245.892 35.678C246.454 35.3736 247.081 35.2214 247.771 35.2214C248.443 35.2214 249.053 35.3652 249.598 35.6527C250.143 35.9401 250.569 36.3545 250.876 36.8956C251.191 37.4283 251.348 38.0497 251.348 38.76ZM247.783 36.718C247.332 36.718 246.953 36.8448 246.646 37.0985C246.339 37.3522 246.152 37.6989 246.084 38.1385H249.47C249.402 37.7073 249.214 37.3648 248.908 37.1112C248.601 36.8491 248.226 36.718 247.783 36.718Z" fill="white"/>
</svg>
