<svg width="697" height="322" viewBox="0 0 697 322" fill="none" xmlns="http://www.w3.org/2000/svg">
<g clip-path="url(#clip0)">
<path d="M591.456 3.96552H398.83V0H311.487V3.96552H118.067C116.356 3.96552 114.662 4.30215 113.081 4.95618C111.5 5.61022 110.064 6.56885 108.854 7.77735C107.644 8.98584 106.684 10.4205 106.029 11.9995C105.375 13.5785 105.038 15.2708 105.038 16.9799V280.434C105.038 283.886 106.41 287.196 108.854 289.637C111.297 292.077 114.612 293.448 118.067 293.448H591.456C593.167 293.448 594.861 293.112 596.442 292.458C598.023 291.804 599.459 290.845 600.669 289.637C601.879 288.428 602.839 286.993 603.493 285.414C604.148 283.835 604.485 282.143 604.485 280.434V16.9799C604.485 15.2708 604.148 13.5785 603.493 11.9995C602.839 10.4205 601.879 8.98583 600.669 7.77734C599.459 6.56884 598.023 5.61021 596.442 4.95617C594.861 4.30214 593.167 3.96551 591.456 3.96552Z" fill="#3F3D56"/>
<path d="M587.016 26.9656H122.506V288.69H587.016V26.9656Z" fill="#1883FC"/>
<path d="M354.364 19.8275C356.995 19.8275 359.128 17.697 359.128 15.0689C359.128 12.4408 356.995 10.3103 354.364 10.3103C351.733 10.3103 349.6 12.4408 349.6 15.0689C349.6 17.697 351.733 19.8275 354.364 19.8275Z" fill="#1883FC"/>
<path d="M560.35 60.2756H538.331V38.2825H560.35V60.2756ZM539.288 59.3194H559.393V39.2387H539.288V59.3194Z" fill="#3F3D56"/>
<path d="M617.528 283.931H572.195V280.669C572.195 280.584 572.178 280.5 572.146 280.421C572.113 280.343 572.065 280.271 572.005 280.211C571.945 280.151 571.874 280.103 571.795 280.071C571.716 280.038 571.632 280.022 571.547 280.022H556.004C555.919 280.022 555.835 280.038 555.757 280.071C555.678 280.103 555.607 280.151 555.546 280.211C555.486 280.271 555.439 280.343 555.406 280.421C555.374 280.5 555.357 280.584 555.357 280.669V283.931H545.643V280.669C545.643 280.584 545.626 280.5 545.593 280.421C545.561 280.343 545.513 280.271 545.453 280.211C545.393 280.151 545.321 280.103 545.243 280.071C545.164 280.038 545.08 280.022 544.995 280.022H529.452C529.367 280.022 529.283 280.038 529.204 280.071C529.126 280.103 529.054 280.151 528.994 280.211C528.934 280.271 528.886 280.343 528.854 280.421C528.821 280.5 528.805 280.584 528.805 280.669V283.931H519.09V280.669C519.09 280.584 519.073 280.5 519.041 280.421C519.008 280.343 518.961 280.271 518.901 280.211C518.84 280.151 518.769 280.103 518.69 280.071C518.612 280.038 518.528 280.022 518.443 280.022H502.9C502.815 280.022 502.731 280.038 502.652 280.071C502.573 280.103 502.502 280.151 502.442 280.211C502.382 280.271 502.334 280.343 502.301 280.421C502.269 280.5 502.252 280.584 502.252 280.669V283.931H492.538V280.669C492.538 280.584 492.521 280.5 492.489 280.421C492.456 280.343 492.408 280.271 492.348 280.211C492.288 280.151 492.217 280.103 492.138 280.071C492.06 280.038 491.975 280.022 491.89 280.022H476.348C476.263 280.022 476.178 280.038 476.1 280.071C476.021 280.103 475.95 280.151 475.89 280.211C475.829 280.271 475.782 280.343 475.749 280.421C475.717 280.5 475.7 280.584 475.7 280.669V283.931H465.986V280.669C465.986 280.584 465.969 280.5 465.936 280.421C465.904 280.343 465.856 280.271 465.796 280.211C465.736 280.151 465.664 280.103 465.586 280.071C465.507 280.038 465.423 280.022 465.338 280.022H449.795C449.71 280.022 449.626 280.038 449.547 280.071C449.469 280.103 449.397 280.151 449.337 280.211C449.277 280.271 449.229 280.343 449.197 280.421C449.164 280.5 449.148 280.584 449.148 280.669V283.931H439.433V280.669C439.433 280.584 439.417 280.5 439.384 280.421C439.352 280.343 439.304 280.271 439.244 280.211C439.184 280.151 439.112 280.103 439.034 280.071C438.955 280.038 438.871 280.022 438.786 280.022H423.243C423.158 280.022 423.074 280.038 422.995 280.071C422.917 280.103 422.845 280.151 422.785 280.211C422.725 280.271 422.677 280.343 422.645 280.421C422.612 280.5 422.595 280.584 422.595 280.669V283.931H412.881V280.669C412.881 280.584 412.864 280.5 412.832 280.421C412.799 280.343 412.752 280.271 412.691 280.211C412.631 280.151 412.56 280.103 412.481 280.071C412.403 280.038 412.319 280.022 412.233 280.022H290.482C290.397 280.022 290.312 280.038 290.234 280.071C290.155 280.103 290.084 280.151 290.024 280.211C289.963 280.271 289.916 280.343 289.883 280.421C289.851 280.5 289.834 280.584 289.834 280.669V283.931H280.12V280.669C280.12 280.584 280.103 280.5 280.07 280.421C280.038 280.343 279.99 280.271 279.93 280.211C279.87 280.151 279.798 280.103 279.72 280.071C279.641 280.038 279.557 280.022 279.472 280.022H263.929C263.844 280.022 263.76 280.038 263.681 280.071C263.603 280.103 263.531 280.151 263.471 280.211C263.411 280.271 263.363 280.343 263.331 280.421C263.298 280.5 263.282 280.584 263.282 280.669V283.931H253.567V280.669C253.567 280.584 253.551 280.5 253.518 280.421C253.486 280.343 253.438 280.271 253.378 280.211C253.318 280.151 253.246 280.103 253.168 280.071C253.089 280.038 253.005 280.022 252.92 280.022H237.377C237.292 280.022 237.208 280.038 237.129 280.071C237.051 280.103 236.979 280.151 236.919 280.211C236.859 280.271 236.811 280.343 236.779 280.421C236.746 280.5 236.729 280.584 236.729 280.669V283.931H227.015V280.669C227.015 280.584 226.998 280.5 226.966 280.421C226.933 280.343 226.886 280.271 226.825 280.211C226.765 280.151 226.694 280.103 226.615 280.071C226.537 280.038 226.452 280.022 226.367 280.022H210.825C210.74 280.022 210.655 280.038 210.577 280.071C210.498 280.103 210.427 280.151 210.367 280.211C210.307 280.271 210.259 280.343 210.226 280.421C210.194 280.5 210.177 280.584 210.177 280.669V283.931H200.463V280.669C200.463 280.584 200.446 280.5 200.413 280.421C200.381 280.343 200.333 280.271 200.273 280.211C200.213 280.151 200.142 280.103 200.063 280.071C199.984 280.038 199.9 280.022 199.815 280.022H184.272C184.187 280.022 184.103 280.038 184.025 280.071C183.946 280.103 183.875 280.151 183.814 280.211C183.754 280.271 183.707 280.343 183.674 280.421C183.642 280.5 183.625 280.584 183.625 280.669V283.931H173.91V280.669C173.91 280.584 173.894 280.5 173.861 280.421C173.829 280.343 173.781 280.271 173.721 280.211C173.661 280.151 173.589 280.103 173.511 280.071C173.432 280.038 173.348 280.022 173.263 280.022H157.72C157.635 280.022 157.551 280.038 157.472 280.071C157.394 280.103 157.322 280.151 157.262 280.211C157.202 280.271 157.154 280.343 157.122 280.421C157.089 280.5 157.072 280.584 157.072 280.669V283.931H147.358V280.669C147.358 280.584 147.341 280.5 147.309 280.421C147.276 280.343 147.229 280.271 147.169 280.211C147.108 280.151 147.037 280.103 146.958 280.071C146.88 280.038 146.796 280.022 146.711 280.022H131.168C131.083 280.022 130.999 280.038 130.92 280.071C130.841 280.103 130.77 280.151 130.71 280.211C130.65 280.271 130.602 280.343 130.569 280.421C130.537 280.5 130.52 280.584 130.52 280.669V283.931H100.73C96.6076 283.931 92.6542 285.567 89.7394 288.478C86.8246 291.389 85.187 295.338 85.187 299.456V306.475C85.187 310.593 86.8246 314.541 89.7394 317.453C92.6542 320.364 96.6076 322 100.73 322H617.528C621.65 322 625.604 320.364 628.518 317.453C631.433 314.541 633.071 310.593 633.071 306.475V299.456C633.071 295.338 631.433 291.389 628.518 288.478C625.604 285.567 621.65 283.931 617.528 283.931Z" fill="#3F3D56"/>
<path d="M558.302 172.803H408.745V87.7588H558.302V172.803ZM410.225 171.324H556.821V89.2378H410.225V171.324Z" fill="#3F3D56"/>
<path d="M284.36 189.812H151.091V106.986H284.36V189.812ZM152.572 188.333H282.88V108.465H152.572V188.333Z" fill="#3F3D56"/>
<path d="M213.353 158.013L213.226 156.359C212.844 152.925 213.99 149.173 217.173 145.357C220.039 141.986 221.631 139.506 221.631 136.644C221.631 133.401 219.593 131.239 215.582 131.175C213.287 131.166 211.045 131.853 209.151 133.147L207.623 129.14C209.724 127.613 213.353 126.596 216.728 126.596C224.05 126.596 227.361 131.112 227.361 135.944C227.361 140.27 224.941 143.386 221.885 147.01C219.084 150.317 218.065 153.116 218.256 156.359L218.319 158.013L213.353 158.013ZM211.952 166.917C211.918 166.398 211.992 165.877 212.169 165.389C212.347 164.9 212.624 164.453 212.983 164.076C213.342 163.7 213.775 163.402 214.255 163.201C214.735 163 215.252 162.901 215.773 162.91C218.001 162.91 219.529 164.563 219.529 166.917C219.551 167.427 219.468 167.936 219.287 168.413C219.106 168.891 218.831 169.327 218.477 169.695C218.123 170.063 217.698 170.356 217.228 170.556C216.758 170.757 216.252 170.86 215.741 170.86C215.23 170.86 214.724 170.757 214.254 170.556C213.784 170.356 213.359 170.063 213.005 169.695C212.651 169.327 212.376 168.891 212.195 168.413C212.014 167.936 211.931 167.427 211.952 166.917Z" fill="#D0CDE1"/>
<path d="M479.151 139.525L479.023 137.871C478.641 134.437 479.787 130.685 482.971 126.869C485.836 123.498 487.428 121.018 487.428 118.156C487.428 114.913 485.39 112.751 481.379 112.687C479.085 112.678 476.842 113.365 474.948 114.659L473.42 110.652C475.521 109.125 479.151 108.108 482.525 108.108C489.848 108.108 493.158 112.624 493.158 117.456C493.158 121.782 490.739 124.898 487.682 128.522C484.881 131.829 483.862 134.628 484.053 137.871L484.117 139.525L479.151 139.525ZM477.75 148.429C477.716 147.91 477.789 147.39 477.967 146.901C478.144 146.412 478.421 145.965 478.78 145.588C479.139 145.212 479.572 144.914 480.053 144.713C480.533 144.512 481.049 144.413 481.57 144.422C483.799 144.422 485.327 146.075 485.327 148.429C485.348 148.939 485.265 149.448 485.085 149.925C484.904 150.403 484.628 150.839 484.274 151.207C483.92 151.575 483.495 151.868 483.025 152.069C482.555 152.269 482.049 152.372 481.538 152.372C481.027 152.372 480.521 152.269 480.051 152.069C479.581 151.868 479.156 151.575 478.803 151.207C478.449 150.839 478.173 150.403 477.992 149.925C477.811 149.448 477.729 148.939 477.75 148.429Z" fill="#D0CDE1"/>
<path d="M357.378 256.716C392.663 256.716 421.267 228.145 421.267 192.902C421.267 157.658 392.663 129.087 357.378 129.087C322.093 129.087 293.489 157.658 293.489 192.902C293.489 228.145 322.093 256.716 357.378 256.716Z" fill="#2F2E41"/>
<path d="M332.702 280.29L313.603 276.836L319.797 237.003L338.896 240.456L332.702 280.29Z" fill="#2F2E41"/>
<path d="M377.095 247.363L357.996 243.91L351.801 278.088L370.9 281.542L377.095 247.363Z" fill="#2F2E41"/>
<path d="M383.665 283.404C384.328 280.124 377.767 276.034 369.011 274.268C360.255 272.503 352.619 273.73 351.956 277.01C351.293 280.29 357.854 284.38 366.611 286.145C375.367 287.911 383.003 286.684 383.665 283.404Z" fill="#2F2E41"/>
<path d="M343.886 282.374C344.326 279.057 337.504 275.418 328.648 274.246C319.792 273.074 312.257 274.813 311.817 278.13C311.377 281.447 318.199 285.086 327.055 286.258C335.91 287.43 343.446 285.691 343.886 282.374Z" fill="#2F2E41"/>
<path d="M361.851 199.102C373.91 199.102 383.686 189.338 383.686 177.292C383.686 165.247 373.91 155.482 361.851 155.482C349.791 155.482 340.015 165.247 340.015 177.292C340.015 189.338 349.791 199.102 361.851 199.102Z" fill="white"/>
<path d="M370.825 176.745C374.845 176.745 378.103 173.49 378.103 169.475C378.103 165.459 374.845 162.205 370.825 162.205C366.805 162.205 363.546 165.459 363.546 169.475C363.546 173.49 366.805 176.745 370.825 176.745Z" fill="#3F3D56"/>
<path d="M306.978 123.478C306.017 99.8532 326.402 79.8426 352.51 78.7834C378.617 77.7242 400.56 96.0174 401.521 119.642C402.482 143.267 384.334 148.635 358.227 149.695C332.119 150.754 307.939 147.103 306.978 123.478Z" fill="white"/>
<path d="M418.611 191.039C435.808 187.102 448.746 179.539 447.508 174.147C446.271 168.755 431.327 167.575 414.13 171.512C396.934 175.449 383.996 183.012 385.234 188.405C386.471 193.797 401.415 194.976 418.611 191.039Z" fill="#2F2E41"/>
<path d="M293.199 211.871C310.396 207.933 323.333 200.371 322.096 194.978C320.859 189.586 305.915 188.407 288.718 192.344C271.522 196.281 258.584 203.844 259.822 209.236C261.059 214.628 276.003 215.808 293.199 211.871Z" fill="#2F2E41"/>
<path d="M339.831 218.05C339.49 219.929 339.524 221.857 339.929 223.723C340.334 225.589 341.104 227.357 342.193 228.926C343.282 230.495 344.67 231.834 346.278 232.867C347.885 233.901 349.681 234.608 351.562 234.948C353.443 235.288 355.373 235.255 357.241 234.85C359.109 234.445 360.879 233.677 362.45 232.589C364.021 231.5 365.362 230.114 366.397 228.508C367.431 226.903 368.139 225.109 368.479 223.23C369.912 215.329 363.795 212.532 355.884 211.102C347.973 209.671 341.263 210.148 339.831 218.05Z" fill="white"/>
<path d="M219.466 9.7041H114.415V109.514H219.466V9.7041Z" fill="#D0CDE1"/>
<path d="M207.528 21.6277H126.353V83.6304H207.528V21.6277Z" fill="white"/>
<path d="M170.426 90.9452H126.272V93.2664H170.426V90.9452Z" fill="#F2F2F2"/>
<path d="M170.426 97.9087H126.272V100.23H170.426V97.9087Z" fill="#F2F2F2"/>
<path d="M140.797 61.9305C145.93 61.9305 150.092 57.7736 150.092 52.6458C150.092 47.518 145.93 43.3611 140.797 43.3611C135.663 43.3611 131.501 47.518 131.501 52.6458C131.501 57.7736 135.663 61.9305 140.797 61.9305Z" fill="#3F3D56"/>
<path d="M166.941 61.9305C172.074 61.9305 176.236 57.7736 176.236 52.6458C176.236 47.518 172.074 43.3611 166.941 43.3611C161.807 43.3611 157.645 47.518 157.645 52.6458C157.645 57.7736 161.807 61.9305 166.941 61.9305Z" fill="#1883FC"/>
<path d="M193.084 61.9305C198.218 61.9305 202.38 57.7736 202.38 52.6458C202.38 47.518 198.218 43.3611 193.084 43.3611C187.95 43.3611 183.789 47.518 183.789 52.6458C183.789 57.7736 187.95 61.9305 193.084 61.9305Z" fill="#E6E6E6"/>
<path d="M166.94 20.1494C169.507 20.1494 171.588 18.071 171.588 15.5071C171.588 12.9432 169.507 10.8647 166.94 10.8647C164.373 10.8647 162.292 12.9432 162.292 15.5071C162.292 18.071 164.373 20.1494 166.94 20.1494Z" fill="#3F3D56"/>
<path d="M269.432 202.967H164.381V302.777H269.432V202.967Z" fill="#D0CDE1"/>
<path d="M257.495 214.89H176.319V276.893H257.495V214.89Z" fill="white"/>
<path d="M222.64 225.08H194.182V253.504H222.64V225.08Z" fill="#1883FC"/>
<path d="M205.076 232.188V266.703H239.632V232.188H205.076ZM238.133 265.206H206.575V233.685H238.133V265.206Z" fill="#3F3D56"/>
<path d="M220.393 283.047H176.239V285.368H220.393V283.047Z" fill="#F2F2F2"/>
<path d="M216.907 213.412C219.474 213.412 221.555 211.333 221.555 208.77C221.555 206.206 219.474 204.127 216.907 204.127C214.34 204.127 212.259 206.206 212.259 208.77C212.259 211.333 214.34 213.412 216.907 213.412Z" fill="#3F3D56"/>
<path d="M542.94 173.086H437.89V272.896H542.94V173.086Z" fill="#D0CDE1"/>
<path d="M531.003 185.009H449.827V247.012H531.003V185.009Z" fill="white"/>
<path d="M499.147 233.548H481.684V238.717H499.147V233.548Z" fill="#3F3D56"/>
<path d="M520.259 193.304H460.571V195.519H520.259V193.304Z" fill="#3F3D56"/>
<path d="M520.259 200.319H460.571V202.534H520.259V200.319Z" fill="#3F3D56"/>
<path d="M520.259 207.334H460.571V209.549H520.259V207.334Z" fill="#3F3D56"/>
<path d="M520.259 214.349H460.571V216.564H520.259V214.349Z" fill="#3F3D56"/>
<path d="M520.259 221.364H460.571V223.579H520.259V221.364Z" fill="#3F3D56"/>
<path d="M493.901 253.166H449.747V255.487H493.901V253.166Z" fill="#F2F2F2"/>
<path d="M511.33 258.969H449.747V261.29H511.33V258.969Z" fill="#F2F2F2"/>
<path d="M490.415 183.531C492.982 183.531 495.063 181.452 495.063 178.889C495.063 176.325 492.982 174.246 490.415 174.246C487.848 174.246 485.768 176.325 485.768 178.889C485.768 181.452 487.848 183.531 490.415 183.531Z" fill="#3F3D56"/>
</g>
<defs>
<clipPath id="clip0">
<rect width="697" height="322" fill="white"/>
</clipPath>
</defs>
</svg>
