<svg width="780" height="580" viewBox="0 0 780 580" fill="none" xmlns="http://www.w3.org/2000/svg">
<g clip-path="url(#clip0)">
<path opacity="0.1" d="M78.4561 58.0764C73.6015 60.0891 68.6192 62.6726 65.9514 67.2012C63.1258 71.9852 63.4639 77.9257 63.99 83.4606C68.5741 131.465 80.6505 182.519 59.7967 226.003C49.6741 247.099 32.7431 264.004 19.2764 283.163C5.80974 302.321 -4.3579 326.241 1.89448 348.779C9.52961 376.318 38.0261 391.586 57.2341 412.78C69.8065 426.636 78.6215 443.474 90.3522 458.051C102.083 472.628 118.157 485.47 136.884 486.327C163.818 487.566 185.731 464.322 212.138 458.937C239.192 453.425 266.433 467.454 288.369 484.246C310.305 501.039 330.257 521.384 355.816 531.868C384.041 543.456 415.859 541.684 445.573 548.646C472.627 554.992 497.531 568.487 524.389 575.682C551.248 582.877 582.728 582.441 603.536 564.064C630.657 540.032 628.523 497.224 645.845 465.433C661.934 435.896 693.429 418.262 714.629 392.15C752.774 345.151 751.527 273.317 719.138 222.203C686.749 171.089 628.08 140.14 568.089 132.081C541.035 128.454 513.177 128.95 487.168 120.696C417.55 98.6161 376.121 19.5044 305.045 3.04215C259.865 -7.40445 215.926 10.6875 177.442 32.955C144.039 52.2861 113.22 43.6644 78.4561 58.0764Z" fill="#0C37D1"/>
<path d="M146.3 213.16C146.3 213.16 120.652 237.35 93.1245 238.071C81.5652 238.301 70.3924 242.273 61.284 249.389C56.9786 252.79 52.9941 256.579 49.3804 260.707" stroke="#535461" stroke-width="2" stroke-miterlimit="10"/>
<path d="M32.021 261.3C35.7183 259.422 49.8312 260.669 49.8312 260.669C49.8312 260.669 42.5117 272.798 38.8144 274.675C37.9289 275.2 36.945 275.537 35.9238 275.666C34.9025 275.795 33.8656 275.713 32.8774 275.425C31.8893 275.137 30.9708 274.649 30.1792 273.991C29.3875 273.334 28.7394 272.521 28.2752 271.602C27.8109 270.684 27.5403 269.681 27.4802 268.654C27.4201 267.627 27.5718 266.598 27.9258 265.632C28.2799 264.666 28.8287 263.783 29.5383 263.038C30.2479 262.293 31.1032 261.701 32.051 261.3H32.021Z" fill="#0C37D1"/>
<path d="M46.8779 239.859C51.0036 240.294 62.1707 249.006 62.1707 249.006C62.1707 249.006 49.3954 255.209 45.3073 254.781C43.3946 254.492 41.6671 253.478 40.4841 251.948C39.3012 250.419 38.7539 248.492 38.9563 246.57C39.1586 244.647 40.095 242.877 41.5705 241.627C43.046 240.377 44.947 239.743 46.8779 239.859V239.859Z" fill="#0C37D1"/>
<path d="M82.1077 222.578C85.4443 225.034 90.6897 238.191 90.6897 238.191C90.6897 238.191 76.5542 237.117 73.2176 234.669C71.7137 233.455 70.7359 231.708 70.4877 229.792C70.2394 227.876 70.7397 225.937 71.8845 224.38C73.0293 222.823 74.7306 221.767 76.6346 221.431C78.5386 221.096 80.4988 221.506 82.1077 222.578V222.578Z" fill="#0C37D1"/>
<path d="M111.709 215.511C115.414 217.366 122.808 229.45 122.808 229.45C122.808 229.45 108.695 230.779 104.99 228.924C104.056 228.516 103.214 227.922 102.516 227.179C101.818 226.435 101.279 225.557 100.932 224.599C100.585 223.64 100.436 222.621 100.496 221.604C100.555 220.586 100.821 219.591 101.278 218.68C101.734 217.768 102.372 216.959 103.151 216.302C103.931 215.644 104.836 215.152 105.812 214.856C106.788 214.559 107.814 214.465 108.828 214.577C109.842 214.69 110.822 215.007 111.709 215.511V215.511Z" fill="#0C37D1"/>
<path d="M70.0237 262.682C71.2561 258.724 67.649 245.026 67.649 245.026C67.649 245.026 56.9177 254.278 55.6853 258.236C55.338 259.191 55.1883 260.207 55.2453 261.222C55.3024 262.237 55.5649 263.229 56.0171 264.14C56.4692 265.05 57.1016 265.859 57.8758 266.518C58.6501 267.177 59.5501 267.672 60.5215 267.973C61.4928 268.275 62.5152 268.376 63.5267 268.27C64.5382 268.165 65.5179 267.856 66.4063 267.361C67.2947 266.866 68.0733 266.196 68.6951 265.392C69.3169 264.588 69.7689 263.666 70.0237 262.682V262.682Z" fill="#0C37D1"/>
<path d="M104.54 253.948C104.54 249.802 96.9872 237.816 96.9872 237.816C96.9872 237.816 89.5174 249.832 89.5249 253.993C89.5309 255.985 90.3284 257.892 91.7419 259.297C93.1554 260.701 95.0693 261.486 97.0623 261.48C99.0554 261.474 100.964 260.677 102.37 259.265C103.775 257.852 104.561 255.94 104.555 253.948H104.54Z" fill="#0C37D1"/>
<path d="M136.921 240.91C137.613 236.825 132.202 223.734 132.202 223.734C132.202 223.734 122.801 234.339 122.117 238.424C121.886 240.341 122.402 242.273 123.559 243.819C124.716 245.365 126.424 246.407 128.329 246.728C130.234 247.049 132.189 246.624 133.789 245.542C135.389 244.46 136.511 242.804 136.921 240.918V240.91Z" fill="#0C37D1"/>
<path d="M179.628 149.099C179.628 149.099 148.735 132.141 139.551 106.163C135.779 95.2396 128.561 85.8341 118.983 79.3596C114.413 76.3201 109.573 73.7057 104.525 71.5491" stroke="#535461" stroke-width="2" stroke-miterlimit="10"/>
<path d="M98.6629 55.2146C101.586 58.151 104.735 71.9621 104.735 71.9621C104.735 71.9621 90.9376 68.7328 88.0143 65.7888C86.7234 64.3561 86.0332 62.4821 86.0868 60.5549C86.1403 58.6277 86.9334 56.7949 88.3019 55.436C89.6704 54.077 91.5094 53.2961 93.4381 53.2549C95.3668 53.2137 97.2376 53.9153 98.6629 55.2146V55.2146Z" fill="#0C37D1"/>
<path d="M123.65 62.747C124.507 66.8025 119.644 80.1029 119.644 80.1029C119.644 80.1029 109.823 69.8967 108.966 65.8337C108.712 64.8511 108.659 63.8272 108.812 62.8238C108.965 61.8204 109.319 60.8584 109.854 59.9958C110.39 59.1332 111.094 58.388 111.926 57.8051C112.757 57.2222 113.698 56.8138 114.692 56.6045C115.685 56.3952 116.711 56.3894 117.707 56.5874C118.703 56.7854 119.649 57.1831 120.487 57.7565C121.325 58.3299 122.038 59.0671 122.583 59.9235C123.128 60.78 123.493 61.7379 123.657 62.7395L123.65 62.747Z" fill="#0C37D1"/>
<path d="M150.929 90.9778C149.621 94.9056 138.702 103.94 138.702 103.94C138.702 103.94 135.381 90.1742 136.688 86.2389C137.317 84.3467 138.672 82.7816 140.456 81.888C142.239 80.9943 144.305 80.8453 146.198 81.4737C148.092 82.1022 149.658 83.4565 150.552 85.2389C151.446 87.0212 151.595 89.0856 150.967 90.9778H150.929Z" fill="#0C37D1"/>
<path d="M166.77 116.925C166.147 121.018 156.911 131.765 156.911 131.765C156.911 131.765 151.305 118.758 151.928 114.665C152.032 113.653 152.341 112.673 152.835 111.784C153.329 110.895 153.999 110.116 154.803 109.494C155.608 108.871 156.53 108.418 157.515 108.163C158.5 107.907 159.527 107.854 160.533 108.007C161.539 108.16 162.503 108.515 163.367 109.051C164.232 109.587 164.978 110.294 165.562 111.127C166.145 111.96 166.553 112.903 166.761 113.898C166.968 114.894 166.972 115.921 166.77 116.918V116.925Z" fill="#0C37D1"/>
<path d="M109.026 91.7813C113.174 91.7363 125.108 84.091 125.108 84.091C125.108 84.091 113.001 76.731 108.853 76.7761C106.86 76.799 104.958 77.6122 103.565 79.0368C102.172 80.4614 101.402 82.3808 101.425 84.3726C101.448 86.3644 102.261 88.2655 103.687 89.6578C105.112 91.05 107.033 91.8193 109.026 91.7964V91.7813Z" fill="#0C37D1"/>
<path d="M127.933 121.927C131.871 120.643 140.972 109.783 140.972 109.783C140.972 109.783 127.212 106.381 123.274 107.665C122.302 107.942 121.397 108.412 120.611 109.048C119.825 109.683 119.176 110.469 118.701 111.361C118.227 112.253 117.937 113.231 117.85 114.237C117.762 115.243 117.879 116.257 118.192 117.217C118.506 118.177 119.01 119.064 119.674 119.825C120.339 120.586 121.15 121.205 122.059 121.645C122.969 122.086 123.958 122.338 124.967 122.388C125.976 122.438 126.985 122.283 127.933 121.934V121.927Z" fill="#0C37D1"/>
<path d="M150.328 148.708C154.431 148.107 165.237 138.945 165.237 138.945C165.237 138.945 152.252 133.267 148.156 133.868C147.147 133.972 146.17 134.279 145.283 134.77C144.396 135.261 143.618 135.927 142.995 136.727C142.373 137.527 141.918 138.444 141.66 139.424C141.401 140.404 141.344 141.426 141.491 142.429C141.638 143.431 141.987 144.394 142.516 145.258C143.045 146.123 143.744 146.871 144.571 147.458C145.397 148.046 146.334 148.46 147.324 148.676C148.315 148.892 149.339 148.906 150.335 148.716L150.328 148.708Z" fill="#0C37D1"/>
<path d="M392.232 560.564C542.475 560.564 664.271 438.845 664.271 288.697C664.271 138.549 542.475 16.8303 392.232 16.8303C241.989 16.8303 120.193 138.549 120.193 288.697C120.193 438.845 241.989 560.564 392.232 560.564Z" fill="url(#paint0_linear)"/>
<path d="M392.232 556.058C539.985 556.058 659.762 436.356 659.762 288.697C659.762 141.038 539.985 21.3364 392.232 21.3364C244.479 21.3364 124.702 141.038 124.702 288.697C124.702 436.356 244.479 556.058 392.232 556.058Z" fill="#0C37D1"/>
<path d="M392.232 501.234C509.687 501.234 604.903 406.078 604.903 288.697C604.903 171.316 509.687 76.1602 392.232 76.1602C274.777 76.1602 179.561 171.316 179.561 288.697C179.561 406.078 274.777 501.234 392.232 501.234Z" fill="#DDE1EC"/>
<path opacity="0.3" d="M398.244 113.711H386.22V301.464H398.244V113.711Z" fill="#535461"/>
<g opacity="0.1">
<path opacity="0.1" d="M574.844 284.191H405.007V299.211H574.844V284.191Z" fill="black"/>
<path opacity="0.1" d="M285.101 227.996L278.128 241.302L384.991 297.228L391.964 283.922L285.101 227.996Z" fill="black"/>
<path opacity="0.1" d="M392.232 314.231C404.683 314.231 414.777 304.144 414.777 291.701C414.777 279.258 404.683 269.17 392.232 269.17C379.781 269.17 369.687 279.258 369.687 291.701C369.687 304.144 379.781 314.231 392.232 314.231Z" fill="black"/>
</g>
<path d="M574.844 281.187H405.007V296.207H574.844V281.187Z" fill="#535461"/>
<path d="M392.013 280.935L285.15 225.009L278.178 238.315L385.041 294.241L392.013 280.935Z" fill="#535461"/>
<path d="M392.232 311.227C404.683 311.227 414.777 301.14 414.777 288.697C414.777 276.254 404.683 266.167 392.232 266.167C379.781 266.167 369.687 276.254 369.687 288.697C369.687 301.14 379.781 311.227 392.232 311.227Z" fill="#535461"/>
<g opacity="0.1">
<path opacity="0.1" d="M196.078 314.231C196.078 196.848 291.292 101.695 408.75 101.695C441.717 101.665 474.238 109.308 503.738 124.017C533.237 138.726 558.904 160.098 578.706 186.439C542.515 120.71 472.626 76.1602 392.217 76.1602C274.759 76.1602 179.546 171.314 179.546 288.697C179.477 334.81 194.483 379.684 222.283 416.489C205.043 385.163 196.028 349.982 196.078 314.231V314.231Z" fill="black"/>
</g>
<path d="M588.731 132.351C586.206 129.925 564.954 145.869 564.954 145.869C564.954 145.869 557.387 147.251 559.19 152.441C560.994 157.63 551.262 186.694 551.262 186.694L547.302 181.159C547.685 174.663 545.896 170.06 544.153 167.191C544.01 166.958 543.867 166.733 543.725 166.522L544.416 166.282C544.153 162.737 538.479 157.337 535.466 154.694C535.466 154.311 535.466 153.943 535.466 153.552C535.654 149.317 537.352 144.848 535.466 141.01C533.331 136.632 527.087 134.431 526.561 129.625C526.245 126.756 528.184 124.165 529.04 121.401C531.085 114.792 526.839 108.048 522.781 102.356C521.406 100.221 519.733 98.2943 517.813 96.6329C515.984 95.2965 513.975 94.2246 511.846 93.4486C505.902 91.0454 499.823 89.8363 493.69 88.1916C487.806 86.6294 482.381 85.8859 476.406 87.8461C474.988 88.2281 473.694 88.9707 472.649 90.0015C471.228 91.5936 471.041 93.8617 470.109 95.7618C468.606 98.8184 465.367 100.643 462.504 102.603C459.64 104.564 456.77 107.252 456.755 110.632C456.755 115.431 462.241 118.45 464.074 122.918C465.788 127.079 464.074 131.713 463.12 136.099C462.721 137.516 462.682 139.011 463.007 140.447C463.386 141.517 463.956 142.51 464.69 143.376C465.825 144.878 467.043 146.275 468.253 147.702L467.696 147.92C457.611 146.883 451.126 159.681 451.126 159.681C451.592 159.778 452.035 159.891 452.471 160.018L452.043 160.574C448.996 164.529 446.505 168.883 444.641 173.514L436.374 184.584C436.374 184.584 434.571 156.902 438.899 150.676C443.228 144.45 434.939 140.642 434.939 140.642C434.939 140.642 416.903 120.575 414.401 122.303C411.898 124.03 420.525 145.832 428.093 149.294C428.093 149.294 428.844 156.211 427.341 160.709C426.432 163.556 421.578 193.581 421.578 193.581C421.578 193.581 417.257 218.838 437.073 206.348C449.946 198.253 458.265 184.314 462.504 175.557C462.799 174.941 463.077 174.353 463.338 173.792C463.534 174.721 463.667 175.662 463.736 176.608L464.488 205.545C464.678 212.702 463.115 219.797 459.934 226.213L451.104 244.109L452.088 244.41L451.494 245.266C445.678 253.82 435.788 273.053 456.146 282.854L483.2 286.316L481.757 293.233C481.757 293.233 470.59 314.337 467.343 328.869C465.327 337.768 462.178 346.372 457.972 354.471L458.806 354.914C458.633 355.109 458.453 355.312 458.28 355.522C456.64 357.366 455.556 359.637 455.154 362.071L451.487 367.268C451.487 367.268 450.044 388.717 452.93 393.914C454.508 396.753 459.746 398.555 464.202 399.607C470.815 401.176 476.151 394.35 472.641 388.725L472.596 388.649H472.529C471.777 385.157 469.477 374.32 470.229 370.205C470.439 369.033 470.635 367.869 470.732 366.682C470.913 365.123 471.388 363.612 472.13 362.229C472.25 361.996 472.378 361.771 472.506 361.545L472.897 361.711C474.107 362.229 475.302 362.717 476.436 363.145C474.678 364.745 473.43 368.057 474.933 374.868C474.933 374.868 475.076 391.909 476.376 394.59C477.676 397.271 492.225 400.816 494.75 398.052C497.275 395.288 493.127 385.766 493.127 385.766L492.999 385.856C492.165 380.336 491.135 370.452 493.668 366.562C494.69 364.993 495.682 363.37 496.569 361.853L497.117 360.915C501.822 363.258 506.796 365.023 509.517 363.798C509.517 363.798 521.405 336.116 520.684 332.661C519.962 329.207 539.058 290.101 539.058 290.101C539.058 290.101 555.267 272.077 535.458 259.655C529.168 255.698 524.584 253.039 521.255 251.244L518.467 236.674C517.034 229.036 517.29 221.177 519.218 213.648L522.224 202.188L522.472 201.212C522.472 201.212 530.04 185.643 529.679 178.373C529.651 177.809 529.715 177.243 529.867 176.698C529.95 177.044 530.04 177.404 530.138 177.78C532.126 185.336 534.745 192.712 537.968 199.83C543.717 212.792 552.246 211.763 556.921 209.923C557.921 209.536 558.81 208.907 559.506 208.091C560.203 207.276 560.686 206.3 560.911 205.252C562.594 197.186 567.216 174.588 567.509 168.347C567.771 163.467 568.374 158.611 569.313 153.815C581.171 146.883 591.256 134.777 588.731 132.351Z" fill="url(#paint1_linear)"/>
<path d="M500.514 354.065C500.514 354.065 498.928 357.242 496.756 361.057C495.907 362.559 494.96 364.174 493.991 365.728C490.557 371.218 493.991 388.709 493.991 388.709L486.476 389.738L478.961 385.983L477.586 373.291V364.009L486.153 354.433L489.91 350.288L500.514 354.065Z" fill="#F8BDC5"/>
<g opacity="0.1">
<path opacity="0.1" d="M500.514 354.065C500.514 354.065 498.928 357.242 496.756 361.057C493.439 359.285 490.232 357.314 487.152 355.154L486.491 354.689L486.138 354.433L489.895 350.288L500.514 354.065Z" fill="black"/>
</g>
<path d="M537.254 289.914C537.254 289.914 519.061 328.673 519.752 332.106C520.443 335.538 509.111 362.98 509.111 362.98C506.526 364.196 501.776 362.446 497.297 360.126C493.92 358.327 490.657 356.32 487.528 354.118L486.867 353.652L486.469 353.367L516.333 270.695L489.91 251.327L487.956 249.892L476.143 241.18L512.215 247.699C512.215 247.699 513.47 247.542 520.105 251.252C523.291 253.031 527.718 255.698 533.835 259.708C552.69 272.077 537.254 289.914 537.254 289.914Z" fill="#5E52AD"/>
<g opacity="0.03">
<path opacity="0.03" d="M537.254 289.914C537.254 289.914 519.061 328.673 519.752 332.106C520.443 335.538 509.111 362.98 509.111 362.98C506.526 364.196 501.776 362.446 497.297 360.126C493.92 358.327 490.657 356.32 487.528 354.118L486.867 353.652L486.469 353.367L516.333 270.695L489.91 251.327L487.956 249.892L476.143 241.18L512.215 247.699C512.215 247.699 513.47 247.542 520.105 251.252C523.291 253.031 527.718 255.698 533.835 259.708C552.69 272.077 537.254 289.914 537.254 289.914Z" fill="black"/>
</g>
<path d="M481.982 360.922C481.982 360.922 473.055 359.548 476.151 373.96C476.151 373.96 476.286 390.857 477.526 393.486C478.766 396.114 492.631 399.659 495.028 396.918C497.425 394.177 493.48 384.744 493.48 384.744C493.48 384.744 483.357 392.119 480.607 384.226C477.857 376.333 481.982 360.922 481.982 360.922Z" fill="#5D3E53"/>
<path d="M475.797 358.181C474.823 359.108 474.031 360.208 473.46 361.425C472.751 362.804 472.3 364.3 472.13 365.841C472.04 367.013 471.852 368.177 471.657 369.333C470.8 374.222 474.084 388.709 474.084 388.709L461.038 390.767L456.236 385.623L455.207 374.305C456.488 370.425 457.182 366.374 457.266 362.289C457.266 359.337 458.769 356.701 460.272 354.779C461.291 353.496 462.459 352.339 463.751 351.332C463.751 351.332 478.548 355.778 475.797 358.181Z" fill="#F8BDC5"/>
<g opacity="0.1">
<path opacity="0.1" d="M475.797 358.181C474.823 359.108 474.031 360.208 473.46 361.425C468.117 359.014 462.504 355.973 460.46 354.846L460.302 354.764C461.321 353.481 462.489 352.324 463.781 351.316C463.781 351.316 478.548 355.777 475.797 358.181Z" fill="black"/>
</g>
<path d="M518.024 279.625C518.024 279.625 509.449 295.749 503.948 309.125C500.341 317.911 492.886 338.835 488.167 352.158L487.476 354.125C485.402 360.021 484.019 364.009 484.019 364.009C483.104 364.015 482.195 363.88 481.321 363.611C480.509 363.393 479.6 363.1 478.631 362.739L477.541 362.326C476.459 361.906 475.286 361.418 474.167 360.907C468.711 358.474 462.894 355.304 460.783 354.148L459.986 353.705C464.014 345.64 467.02 337.106 468.936 328.298C472.025 313.894 482.666 293 482.666 293L484.041 286.136L458.295 282.704C438.899 273.016 448.323 253.918 453.862 245.439C454.806 243.967 455.827 242.545 456.92 241.18L477.518 245.686C477.518 245.686 480.765 246.723 487.979 249.915L491.293 251.417C495.336 253.272 500.311 255.66 506.323 258.724C526.598 268.968 518.024 279.625 518.024 279.625Z" fill="#5E52AD"/>
<path d="M473.956 387.681C474.691 388.917 475.043 390.344 474.967 391.78C474.892 393.216 474.393 394.598 473.533 395.752C472.673 396.905 471.491 397.778 470.135 398.261C468.78 398.744 467.311 398.815 465.915 398.465C461.7 397.421 456.702 395.634 455.199 392.817C452.456 387.673 453.824 366.404 453.824 366.404L457.431 361.087C457.431 361.087 455.545 384.586 460.009 386.622C464.473 388.657 473.911 387.575 473.911 387.575L473.956 387.681Z" fill="#5D3E53"/>
<path d="M477.609 89.3706C476.238 89.7518 474.993 90.4905 474.001 91.511C472.649 93.0881 472.498 95.3411 471.582 97.2262C470.154 100.23 467.073 102.07 464.337 103.985C461.602 105.9 458.874 108.597 458.859 111.946C458.859 116.707 464.119 119.697 465.833 124.12C467.463 128.251 465.833 132.839 464.923 137.188C464.544 138.596 464.508 140.074 464.818 141.498C465.177 142.555 465.721 143.54 466.426 144.405C469.74 148.911 473.859 152.906 476.076 158.036C477.759 161.933 478.225 166.237 478.668 170.465C479.307 176.548 479.946 182.744 478.788 188.752C478.676 189.112 478.676 189.497 478.788 189.856C478.985 190.201 479.296 190.466 479.668 190.607C481.854 191.669 484.233 192.278 486.662 192.397C489.09 192.517 491.517 192.145 493.798 191.303C496.079 190.461 498.165 189.167 499.933 187.499C501.701 185.831 503.112 183.822 504.083 181.595C505.586 178.193 506.165 174.085 509.141 171.877C509.488 171.59 509.906 171.401 510.351 171.329C511.053 171.348 511.733 171.575 512.305 171.982C516.167 174.07 520.849 174.13 525.155 173.274C527.755 172.756 530.416 171.832 532.137 169.804C535.526 165.779 533.64 159.763 533.865 154.513C534.045 150.315 535.661 145.884 533.865 142.084C531.836 137.743 525.877 135.565 525.381 130.819C525.08 127.98 526.929 125.404 527.748 122.671C529.694 116.114 525.651 109.43 521.789 103.79C520.489 101.686 518.898 99.7771 517.062 98.1199C515.329 96.8014 513.416 95.7391 511.38 94.9656C505.722 92.5849 499.95 91.3833 494.096 89.7611C488.49 88.1615 483.327 87.418 477.609 89.3706Z" fill="#85555C"/>
<path d="M506.353 187.348H486.438V155.099C487.03 152.002 487.377 148.863 487.476 145.712C487.476 144.653 487.476 143.571 487.476 142.482C487.288 138.637 486.491 134.799 484.402 132.456C478.909 126.283 502.25 127.312 502.25 127.312C502.966 130.147 503.896 132.923 505.03 135.618C506.721 139.823 508.971 143.781 511.719 147.386C514.136 150.594 517.233 153.228 520.789 155.099C534.496 161.964 506.353 187.348 506.353 187.348Z" fill="#F8BDC5"/>
<g opacity="0.1">
<path opacity="0.1" d="M505.008 135.618C502.986 138.253 500.282 140.285 497.188 141.495C494.093 142.705 490.727 143.046 487.453 142.482C487.265 138.637 486.469 134.799 484.379 132.456C478.886 126.283 502.227 127.312 502.227 127.312C502.944 130.147 503.873 132.923 505.008 135.618V135.618Z" fill="black"/>
</g>
<path d="M490.557 141.731C500.605 141.731 508.75 133.591 508.75 123.549C508.75 113.508 500.605 105.367 490.557 105.367C480.509 105.367 472.363 113.508 472.363 123.549C472.363 133.591 480.509 141.731 490.557 141.731Z" fill="#F8BDC5"/>
<path d="M566.074 154.761C565.18 159.519 564.608 164.331 564.36 169.166C564.082 175.347 559.679 197.757 558.07 205.755C557.867 206.781 557.414 207.74 556.751 208.549C556.087 209.357 555.235 209.989 554.268 210.389C549.804 212.214 541.688 213.235 536.232 200.385C533.156 193.315 530.66 186.006 528.77 178.531C528.101 176.018 527.599 173.464 527.267 170.886L539.291 164.367C540.422 165.425 541.381 166.654 542.131 168.009C543.792 170.855 545.498 175.422 545.137 181.858L548.895 187.348C548.895 187.348 558.16 158.531 556.41 153.387C554.659 148.242 561.903 146.868 561.903 146.868C561.903 146.868 582.156 131.097 584.56 133.493C586.965 135.888 577.399 147.897 566.074 154.761Z" fill="#F8BDC5"/>
<path d="M467.561 168.482C466.623 171.166 465.544 173.798 464.33 176.368C460.287 185.057 452.366 198.898 440.102 206.904C421.224 219.251 425.342 194.212 425.342 194.212C425.342 194.212 429.964 164.442 430.836 161.626C432.211 157.165 431.52 150.308 431.52 150.308C424.313 146.876 416.077 125.269 418.474 123.549C420.871 121.829 438.013 141.731 438.013 141.731C438.013 141.731 445.911 145.486 441.77 151.682C437.629 157.878 439.365 185.298 439.365 185.298L447.308 174.34C449.075 169.768 451.449 165.454 454.365 161.513C455.868 159.463 456.92 158.224 456.92 158.224L467.561 168.482Z" fill="#F8BDC5"/>
<g opacity="0.1">
<path opacity="0.1" d="M542.139 168.009C539.614 168.94 529.837 172.883 528.755 178.523C528.086 176.011 527.584 173.457 527.252 170.878L539.276 164.359C540.416 165.418 541.382 166.65 542.139 168.009Z" fill="black"/>
</g>
<g opacity="0.1">
<path opacity="0.1" d="M467.561 168.482C466.623 171.166 465.544 173.798 464.33 176.368C463.864 172.973 461.948 164.292 454.365 161.49C455.868 159.44 456.92 158.201 456.92 158.201L467.561 168.482Z" fill="black"/>
</g>
<g opacity="0.1">
<path opacity="0.1" d="M506.353 187.348H486.438V155.099C487.03 152.002 487.377 148.863 487.476 145.712C491.571 149.662 490.557 155.783 490.557 155.783L501.198 179.815L506.353 158.569L504.64 155.828L511.704 147.431C514.121 150.639 517.218 153.273 520.774 155.144C534.496 161.964 506.353 187.348 506.353 187.348Z" fill="black"/>
</g>
<g opacity="0.1">
<path opacity="0.1" d="M520.421 253.197C520.421 253.197 504.82 251.957 491.286 251.372L489.925 251.312C488.002 251.236 486.168 251.176 484.372 251.131C471.236 250.816 456.379 246.227 453.854 245.424C454.801 243.957 455.825 242.54 456.92 241.18L477.518 245.687C477.518 245.687 480.765 246.723 487.979 249.915L476.143 241.18L512.215 247.699C512.215 247.699 513.47 247.542 520.105 251.252L520.421 253.197Z" fill="black"/>
</g>
<path d="M506.353 159.906L504.64 157.165L512.26 148.055C512.26 148.055 527.973 155.753 532.092 154.063C532.092 154.063 542.049 162.324 542.387 167.1C542.387 167.1 527.973 171.899 528.312 179.117C528.65 186.334 521.473 201.752 521.473 201.752L518.467 214.084C516.617 221.557 516.361 229.336 517.716 236.915L520.459 252.183C520.459 252.183 498.831 250.47 484.387 250.125C469.943 249.78 453.493 244.297 453.493 244.297L461.918 226.581C464.955 220.187 466.443 213.168 466.261 206.093L465.51 177.412C465.51 177.412 464.826 163.007 453.486 160.604C453.486 160.604 459.663 147.912 469.267 148.941C469.267 148.941 483.26 143.106 487.416 147.048C491.571 150.991 490.549 157.172 490.549 157.172L501.19 181.205L506.353 159.906Z" fill="#ED677B"/>
<g opacity="0.1">
<path opacity="0.1" d="M477.428 119.802C480.186 119.802 482.35 116.88 485.108 117.031C486.536 117.106 487.761 118.014 488.941 118.833C493.399 121.918 498.36 124.205 503.603 125.592C505.639 126.133 507.796 126.538 509.84 126.043C511.884 125.547 513.8 123.94 514.033 121.845C514.09 120.921 513.968 119.995 513.672 119.118C511.359 111.062 506.123 104.156 498.988 99.7497C496.133 97.9998 492.646 96.663 489.482 97.7595C486.626 98.7433 484.785 101.417 482.719 103.617C481.161 105.265 479.392 106.699 477.458 107.883C475.955 108.792 473.701 109.385 472.837 111.052C471.206 114.162 473.768 119.772 477.428 119.802Z" fill="black"/>
</g>
<path d="M477.428 119.118C480.186 119.118 482.35 116.197 485.108 116.347C486.536 116.422 487.761 117.331 488.941 118.149C493.399 121.235 498.36 123.522 503.603 124.908C505.639 125.449 507.796 125.855 509.84 125.359C511.884 124.863 513.8 123.256 514.033 121.161C514.09 120.237 513.968 119.312 513.672 118.435C511.359 110.378 506.123 103.473 498.988 99.0661C496.133 97.3163 492.646 95.9794 489.482 97.0759C486.626 98.0597 484.785 100.733 482.719 102.934C481.161 104.581 479.392 106.016 477.458 107.2C475.955 108.108 473.701 108.702 472.837 110.369C471.206 113.508 473.768 119.081 477.428 119.118Z" fill="#85555C"/>
<path opacity="0.05" d="M469.109 197.464C469.109 197.464 485.928 203.637 496.914 198.838L502.408 199.184C502.408 199.184 511.538 205.582 521.195 202.721" fill="black"/>
<path opacity="0.05" d="M548.744 187.175C548.744 187.175 546.002 193.694 547.369 195.752Z" fill="black"/>
<path opacity="0.05" d="M439.245 185.117C439.245 185.117 440.62 191.636 439.245 193.694Z" fill="black"/>
<path d="M723.924 333.66C723.924 333.66 692.482 365.083 710.232 411.705C727.982 458.328 679.812 535.863 679.812 535.863C679.812 535.863 680.33 535.788 681.315 535.623C745.89 524.23 777.971 450.428 742.065 395.596C728.681 375.206 717.724 351.294 723.924 333.66Z" fill="#0C37D1"/>
<path opacity="0.1" d="M723.924 334.186C723.924 334.186 692.482 365.608 710.232 412.231C727.982 458.854 679.812 536.381 679.812 536.381C679.812 536.381 680.33 536.306 681.315 536.141C745.89 524.748 777.971 450.946 742.065 396.115C728.681 375.732 717.724 351.82 723.924 334.186Z" fill="black"/>
<path d="M723.924 333.66C723.924 333.66 706.174 372.172 723.924 403.595C741.674 435.017 726.93 523.193 679.804 535.863" stroke="#535461" stroke-miterlimit="10"/>
<path d="M779.925 460.747C779.925 460.747 744.049 455.039 740.78 487.167C737.511 519.296 671.771 523.749 671.771 523.749L673.003 524.568C727.261 560.166 779.136 547.241 771.313 499.972C768.427 482.406 768.668 464.757 779.925 460.747Z" fill="#0C37D1"/>
<path d="M779.925 460.747C779.925 460.747 752.075 466.852 754.374 492.161C756.674 517.471 713.042 547.804 671.801 523.757" stroke="#535461" stroke-miterlimit="10"/>
<path d="M748.362 524.921C748.362 524.921 720.106 519.273 712.569 511.74C705.032 504.208 671.124 491.035 667.359 500.475C663.594 509.915 616.499 541.893 648.52 547.541C680.54 553.189 723.871 555.051 733.287 551.296C742.704 547.541 748.362 524.921 748.362 524.921Z" fill="#A8A8A8"/>
<path opacity="0.2" d="M648.52 544.019C680.548 549.667 723.871 551.529 733.287 547.774C740.464 544.905 745.447 531.132 747.415 524.718L748.355 524.913C748.355 524.913 742.704 547.504 733.287 551.266C723.871 555.029 680.541 553.151 648.52 547.511C639.276 545.882 636.631 542.051 637.631 537.207C638.412 540.369 641.636 542.802 648.52 544.019Z" fill="black"/>
</g>
<defs>
<linearGradient id="paint0_linear" x1="392.232" y1="560.564" x2="392.232" y2="16.8303" gradientUnits="userSpaceOnUse">
<stop stop-color="#808080" stop-opacity="0.25"/>
<stop offset="0.54" stop-color="#808080" stop-opacity="0.12"/>
<stop offset="1" stop-color="#808080" stop-opacity="0.1"/>
</linearGradient>
<linearGradient id="paint1_linear" x1="131512" y1="186823" x2="131512" y2="56225.2" gradientUnits="userSpaceOnUse">
<stop stop-color="#808080" stop-opacity="0.25"/>
<stop offset="0.54" stop-color="#808080" stop-opacity="0.12"/>
<stop offset="1" stop-color="#808080" stop-opacity="0.1"/>
</linearGradient>
<clipPath id="clip0">
<rect width="780" height="580" fill="white"/>
</clipPath>
</defs>
</svg>
